<svg xmlns="http://www.w3.org/2000/svg" xmlns:xlink="http://www.w3.org/1999/xlink" width="526" zoomAndPan="magnify" viewBox="0 0 394.5 374.999991" height="500" preserveAspectRatio="xMidYMid meet" version="1.0"><defs><clipPath id="7c18b5c3e2"><path d="M 20.46875 11 L 383.761719 11 L 383.761719 368 L 20.46875 368 Z M 20.46875 11 " clip-rule="nonzero"/></clipPath></defs><g clip-path="url(#7c18b5c3e2)"><path fill="#000000" d="M 212.191406 50.667969 C 206.089844 46.597656 198.140625 46.597656 192.039062 50.667969 L 64.886719 135.433594 C 59.835938 138.804688 56.800781 144.472656 56.800781 150.546875 L 56.800781 312.75 C 56.800781 322.78125 64.933594 330.914062 74.964844 330.914062 L 129.457031 330.914062 L 129.457031 258.257812 C 129.457031 228.160156 153.855469 203.761719 183.949219 203.761719 L 220.28125 203.761719 C 250.375 203.761719 274.773438 228.160156 274.773438 258.257812 L 274.773438 330.914062 L 329.265625 330.914062 C 339.296875 330.914062 347.429688 322.78125 347.429688 312.75 L 347.429688 150.546875 C 347.429688 144.472656 344.394531 138.804688 339.34375 135.433594 Z M 171.886719 20.4375 C 190.191406 8.234375 214.039062 8.234375 232.34375 20.4375 L 359.492188 105.207031 C 374.652344 115.3125 383.761719 132.328125 383.761719 150.546875 L 383.761719 312.75 C 383.761719 342.84375 359.363281 367.242188 329.265625 367.242188 L 256.609375 367.242188 C 246.578125 367.242188 238.445312 359.109375 238.445312 349.078125 L 238.445312 258.257812 C 238.445312 248.222656 230.3125 240.09375 220.28125 240.09375 L 183.949219 240.09375 C 173.917969 240.09375 165.785156 248.222656 165.785156 258.257812 L 165.785156 349.078125 C 165.785156 359.109375 157.652344 367.242188 147.621094 367.242188 L 74.964844 367.242188 C 44.867188 367.242188 20.46875 342.84375 20.46875 312.75 L 20.46875 150.546875 C 20.46875 132.328125 29.578125 115.3125 44.734375 105.207031 Z M 171.886719 20.4375 " fill-opacity="1" fill-rule="evenodd"/></g></svg>