<svg xmlns="http://www.w3.org/2000/svg" xmlns:xlink="http://www.w3.org/1999/xlink" width="1920" zoomAndPan="magnify" viewBox="0 0 1440 809.999993" height="1080" preserveAspectRatio="xMidYMid meet" version="1.0"><defs><clipPath id="d76f45de7c"><path d="M 605 291 L 835 291 L 835 520.5 L 605 520.5 Z M 605 291 " clip-rule="nonzero"/></clipPath></defs><g clip-path="url(#d76f45de7c)"><path fill="#000000" d="M 819.148438 352.328125 L 739.097656 297.789062 C 737.707031 296.820312 736.246094 295.960938 734.722656 295.210938 C 733.199219 294.460938 731.628906 293.832031 730.007812 293.324219 C 728.390625 292.816406 726.742188 292.433594 725.0625 292.175781 C 723.386719 291.917969 721.699219 291.789062 720 291.789062 C 718.300781 291.789062 716.613281 291.917969 714.9375 292.175781 C 713.257812 292.433594 711.609375 292.816406 709.992188 293.324219 C 708.371094 293.832031 706.800781 294.460938 705.277344 295.210938 C 703.753906 295.960938 702.292969 296.820312 700.902344 297.789062 L 620.851562 352.328125 C 619.683594 353.128906 618.566406 354 617.503906 354.9375 C 616.4375 355.875 615.433594 356.875 614.492188 357.933594 C 613.550781 358.992188 612.675781 360.105469 611.867188 361.273438 C 611.058594 362.4375 610.328125 363.648438 609.667969 364.902344 C 609.007812 366.160156 608.425781 367.449219 607.921875 368.777344 C 607.417969 370.101562 606.996094 371.453125 606.65625 372.832031 C 606.320312 374.207031 606.066406 375.601562 605.894531 377.007812 C 605.726562 378.417969 605.640625 379.828125 605.644531 381.25 L 605.644531 485.632812 C 605.636719 486.765625 605.6875 487.894531 605.789062 489.023438 C 605.894531 490.148438 606.054688 491.269531 606.265625 492.378906 C 606.480469 493.492188 606.75 494.589844 607.070312 495.675781 C 607.390625 496.761719 607.765625 497.828125 608.191406 498.878906 C 608.617188 499.925781 609.09375 500.953125 609.621094 501.953125 C 610.148438 502.957031 610.722656 503.929688 611.34375 504.875 C 611.964844 505.820312 612.632812 506.734375 613.34375 507.617188 C 614.054688 508.496094 614.808594 509.339844 615.601562 510.148438 C 616.394531 510.953125 617.226562 511.71875 618.09375 512.445312 C 618.964844 513.171875 619.867188 513.851562 620.800781 514.488281 C 621.738281 515.125 622.703125 515.714844 623.695312 516.257812 C 624.691406 516.800781 625.707031 517.292969 626.75 517.738281 C 627.789062 518.179688 628.851562 518.570312 629.933594 518.910156 C 631.011719 519.25 632.105469 519.535156 633.214844 519.765625 C 634.320312 520 635.4375 520.175781 636.5625 520.296875 C 637.691406 520.421875 638.820312 520.488281 639.949219 520.5 L 685.691406 520.5 L 685.691406 451.886719 C 685.691406 451.136719 685.765625 450.390625 685.914062 449.65625 C 686.058594 448.917969 686.277344 448.203125 686.5625 447.511719 C 686.851562 446.816406 687.203125 446.15625 687.621094 445.53125 C 688.039062 444.910156 688.511719 444.332031 689.042969 443.800781 C 689.574219 443.269531 690.152344 442.792969 690.773438 442.378906 C 691.398438 441.960938 692.058594 441.609375 692.753906 441.320312 C 693.445312 441.035156 694.160156 440.816406 694.898438 440.671875 C 695.632812 440.523438 696.378906 440.449219 697.128906 440.449219 L 742.871094 440.449219 C 743.621094 440.449219 744.367188 440.523438 745.101562 440.671875 C 745.839844 440.816406 746.554688 441.035156 747.246094 441.320312 C 747.941406 441.609375 748.601562 441.960938 749.222656 442.378906 C 749.847656 442.792969 750.425781 443.269531 750.957031 443.800781 C 751.488281 444.332031 751.960938 444.910156 752.378906 445.53125 C 752.796875 446.15625 753.148438 446.816406 753.4375 447.511719 C 753.722656 448.203125 753.941406 448.917969 754.085938 449.65625 C 754.234375 450.390625 754.308594 451.136719 754.308594 451.886719 L 754.308594 520.5 L 800.050781 520.5 C 801.179688 520.488281 802.308594 520.421875 803.433594 520.296875 C 804.5625 520.175781 805.675781 520 806.785156 519.765625 C 807.894531 519.535156 808.988281 519.25 810.066406 518.910156 C 811.148438 518.570312 812.207031 518.179688 813.25 517.738281 C 814.292969 517.292969 815.308594 516.800781 816.304688 516.257812 C 817.296875 515.714844 818.261719 515.125 819.199219 514.488281 C 820.132812 513.851562 821.035156 513.171875 821.90625 512.445312 C 822.773438 511.71875 823.605469 510.953125 824.398438 510.148438 C 825.191406 509.339844 825.945312 508.496094 826.65625 507.617188 C 827.367188 506.734375 828.035156 505.820312 828.65625 504.875 C 829.277344 503.929688 829.851562 502.957031 830.378906 501.953125 C 830.90625 500.953125 831.382812 499.925781 831.808594 498.878906 C 832.234375 497.828125 832.609375 496.761719 832.929688 495.675781 C 833.25 494.589844 833.519531 493.492188 833.734375 492.378906 C 833.945312 491.269531 834.105469 490.148438 834.210938 489.023438 C 834.3125 487.894531 834.363281 486.765625 834.355469 485.632812 L 834.355469 381.25 C 834.359375 379.828125 834.273438 378.417969 834.105469 377.007812 C 833.933594 375.601562 833.679688 374.207031 833.34375 372.832031 C 833.003906 371.453125 832.582031 370.101562 832.078125 368.777344 C 831.574219 367.449219 830.992188 366.160156 830.332031 364.902344 C 829.671875 363.648438 828.941406 362.4375 828.132812 361.273438 C 827.324219 360.105469 826.449219 358.992188 825.507812 357.933594 C 824.566406 356.875 823.5625 355.875 822.496094 354.9375 C 821.433594 354 820.316406 353.128906 819.148438 352.328125 Z M 819.148438 352.328125 " fill-opacity="1" fill-rule="nonzero"/></g></svg>